<svg id="レイヤー_1" data-name="レイヤー 1" xmlns="http://www.w3.org/2000/svg" viewBox="0 0 314 64"><defs><style>.cls-1{fill:#21445b;}</style></defs><title>premium_logo</title><path class="cls-1" d="M10.12,8.85c0-4.76,0-5.62-.06-6.59S9.75.72,8.73.52a4.93,4.93,0,0,0-1-.1c-.13,0-.25-.06-.25-.18S7.6,0,7.93,0c1.38,0,3.22.09,3.47.09.68,0,2.46-.09,3.87-.09C19.11,0,20.5,1.28,21,1.74a5.31,5.31,0,0,1,1.52,3.62c0,4.35-3.19,7.28-7.54,7.28a4.86,4.86,0,0,1-.66,0c-.15,0-.33-.07-.33-.22s.18-.28.83-.28a5.08,5.08,0,0,0,5.31-5,6.47,6.47,0,0,0-1.71-4.71A5.39,5.39,0,0,0,14.19.91a3.81,3.81,0,0,0-1.31.18c-.18.06-.24.28-.24.58V14.22c0,2.92,0,5.35.14,6.62.1.89.28,1.56,1.2,1.69.43,0,1.11.11,1.38.11s.24.09.24.19-.14.24-.49.24c-1.67,0-3.62-.09-3.76-.09s-2,.09-2.95.09c-.35,0-.49-.05-.49-.24s0-.19.24-.19a5.64,5.64,0,0,0,.92-.11c.61-.13.76-.8.89-1.69.16-1.27.16-3.7.16-6.62ZM31.7,11c0-4,0-4.75-.07-5.59s-.21-1.31-1.1-1.43c-.22,0-.68-.06-.93-.06a.25.25,0,0,1-.21-.21c0-.15.13-.22.44-.22,1.23,0,3,.07,3.18.07s2.56-.07,3.39-.07a8.87,8.87,0,0,1,5,1.14A4.52,4.52,0,0,1,43.3,8.13C43.3,10,42.5,11.9,40,14c2.22,2.75,4.08,5.09,5.65,6.72a5,5,0,0,0,3,1.8,5.79,5.79,0,0,0,1,.08.22.22,0,0,1,.23.21c0,.15-.14.22-.63.22H47.5a5.66,5.66,0,0,1-2.88-.51c-1.17-.62-2.15-1.87-3.68-3.83C39.8,17.34,38.61,15.66,38,15a.41.41,0,0,0-.36-.16l-3.44,0c-.13,0-.19,0-.19.21v.61c0,2.51,0,4.52.13,5.59.09.76.24,1.25,1.07,1.38.37,0,1,.11,1.2.11s.22.12.22.21-.12.22-.44.22c-1.46,0-3.19-.08-3.32-.08s-1.83.08-2.66.08c-.28,0-.43-.06-.43-.22a.2.2,0,0,1,.21-.21,4.83,4.83,0,0,0,.84-.11c.51-.13.57-.62.7-1.38a53.91,53.91,0,0,0,.15-5.61V11ZM34,13.15a.39.39,0,0,0,.19.34,9.27,9.27,0,0,0,3,.39,3.38,3.38,0,0,0,2-.46,4.58,4.58,0,0,0,1.63-3.95c0-3.24-1.77-5.11-4.67-5.11a12,12,0,0,0-1.93.15.35.35,0,0,0-.21.31v8.33ZM55.41,11c0-4,0-4.75-.08-5.59s-.2-1.3-1.1-1.42a6.74,6.74,0,0,0-.92-.07.24.24,0,0,1-.21-.21c0-.15.12-.22.43-.22,1.23,0,3,.07,3.12.07s5.84,0,6.46,0,1-.13,1.22-.15a1.68,1.68,0,0,1,.38-.12c.08,0,.12.12.12.23s-.16.49-.22,1.22c0,.25-.1,1.42-.16,1.72,0,.12-.12.27-.24.27S64,6.55,64,6.35a3.07,3.07,0,0,0-.17-.92c-.18-.43-.46-.61-1.92-.8-.47,0-3.6-.09-3.9-.09-.12,0-.15.09-.15.28v7c0,.17,0,.27.15.27.33,0,3.9,0,4.51-.06s1-.09,1.31-.37.32-.33.41-.33.15.06.15.21-.15.58-.22,1.45c0,.51-.12,1.49-.12,1.67s0,.48-.24.48-.19-.09-.19-.24a2.54,2.54,0,0,0-.11-.85c-.1-.38-.35-.68-1.39-.8-.74-.09-3.63-.12-4.09-.12-.14,0-.17.09-.17.19v2.16c0,.89,0,3.91,0,4.43.06,1.73.54,2.07,3.21,2.07a9.25,9.25,0,0,0,2.71-.27A2,2,0,0,0,65,20c.06-.3.12-.39.28-.39s.18.21.18.39a22.78,22.78,0,0,1-.37,2.51c-.18.67-.46.67-1.51.67-2,0-3.59-.06-4.69-.09S57.06,23,56.65,23c0,0-.58,0-1.16,0s-1.13.06-1.56.06-.43-.06-.43-.22a.21.21,0,0,1,.21-.21c.24,0,.58-.09.83-.11.52-.11.59-.63.69-1.39a44.79,44.79,0,0,0,.18-5.61V11Zm40.2,8.76c.09.92.27,2.33,1.38,2.69a5.58,5.58,0,0,0,1.74.25c.14,0,.23.05.23.18s-.25.24-.56.24c-.61,0-3.62-.05-4.6-.16-.65-.06-.78-.15-.78-.26a.26.26,0,0,1,.2-.22c.15,0,.17-.43.12-.92L92.05,8.39H92L85.47,21.64c-.55,1.12-.69,1.38-.94,1.38s-.4-.26-.92-1.2c-.7-1.29-2.48-4.61-3.17-6-.79-1.64-3-6-3.43-7.07h-.12l-1,11.72c0,.38,0,.88,0,1.31a.72.72,0,0,0,.65.73,3.93,3.93,0,0,0,1,.15c.09,0,.22.09.22.19s-.18.24-.49.24c-1,0-2.3-.09-2.52-.09s-1.54.09-2.27.09c-.27,0-.46-.05-.46-.24s.11-.19.27-.19a4.25,4.25,0,0,0,.8-.09c.89-.15.93-1.1,1-2.07l2-16.95c0-.26.16-.46.31-.46a.64.64,0,0,1,.56.4l8.15,16.12L92.94,3.51c.13-.24.24-.44.43-.44s.34.22.4.71Zm13.66-4.17c0,2.49,0,4.54.13,5.61.09.76.19,1.25,1,1.38.4,0,1,.12,1.23.12a.2.2,0,0,1,.21.21c0,.13-.11.21-.42.21-1.51,0-3.25-.08-3.39-.08s-1.83.08-2.67.08c-.27,0-.43-.05-.43-.21a.21.21,0,0,1,.23-.21,4.89,4.89,0,0,0,.83-.12c.52-.13.61-.62.71-1.38.11-1.07.14-3.12.14-5.61V11c0-4,0-4.76,0-5.6s-.28-1.28-.87-1.38a4.18,4.18,0,0,0-.83-.1.22.22,0,0,1-.2-.22c0-.15.11-.22.42-.22.89,0,2.57.07,2.72.07s1.88-.07,2.71-.07c.3,0,.42.07.42.22a.25.25,0,0,1-.21.22,3,3,0,0,0-.67.06c-.74.14-.88.51-1,1.42s0,1.57,0,5.6v4.58ZM120.45,11c0-4,0-4.75-.06-5.59s-.22-1.3-1.1-1.42a6.86,6.86,0,0,0-.92-.07.25.25,0,0,1-.22-.21c0-.15.13-.22.43-.22,1.22,0,2.86.07,3.1.07s1.93-.07,2.73-.07c.3,0,.46.07.46.22a.25.25,0,0,1-.24.21,2.73,2.73,0,0,0-.67.07c-.72.12-.87.57-.93,1.42S123,6.93,123,11v3.63c0,3.76.82,5.32,2,6.35a5.28,5.28,0,0,0,4,1.41,5.6,5.6,0,0,0,4.16-1.83c1.26-1.5,1.54-3.63,1.54-6.28V11c0-4,0-4.75-.07-5.59s-.18-1.3-1.08-1.42a6.35,6.35,0,0,0-.91-.07.21.21,0,0,1-.21-.21c0-.15.11-.22.42-.22,1.2,0,2.76.07,2.92.07s1.47-.07,2.26-.07c.32,0,.43.07.43.22a.22.22,0,0,1-.2.21,3,3,0,0,0-.7.07c-.71.15-.87.57-.94,1.42s0,1.57,0,5.59v2.78c0,2.81-.38,5.95-2.53,7.78a8.19,8.19,0,0,1-5.64,1.9c-.89,0-3.72-.07-5.61-1.83-1.32-1.23-2.36-3-2.36-6.81Zm46.7,8.76c.08.92.27,2.33,1.37,2.69a5.85,5.85,0,0,0,1.75.24c.13,0,.22.06.22.19s-.25.24-.56.24c-.61,0-3.62-.05-4.59-.16-.65-.06-.78-.15-.78-.27a.22.22,0,0,1,.2-.21c.13,0,.18-.43.11-.92L163.58,8.39h-.06L157,21.64c-.55,1.12-.7,1.38-.95,1.38s-.4-.26-.91-1.2c-.71-1.29-2.5-4.61-3.17-6-.8-1.65-3-6-3.44-7.07h-.13l-1,11.72c0,.38,0,.88,0,1.31a.73.73,0,0,0,.66.73,3.87,3.87,0,0,0,1,.15.23.23,0,0,1,.22.19c0,.19-.18.24-.49.24-1,0-2.31-.09-2.52-.09s-1.53.09-2.27.09c-.28,0-.46-.05-.46-.24s.12-.19.28-.19a4.51,4.51,0,0,0,.8-.09c.89-.15.92-1.1,1-2.07l2-16.95c0-.26.15-.46.31-.46a.6.6,0,0,1,.54.4l8.17,16.12,7.85-16.08c.13-.24.26-.44.43-.44s.35.22.42.71Zm44-.85h.13c.82-2.81,3.64-11.65,4.73-15.57a7.06,7.06,0,0,0,.34-1.95c0-.56-.34-.92-1.76-.92a.24.24,0,0,1-.27-.21c0-.15.15-.21.51-.21,1.57,0,2.87.09,3.14.09S219.49,0,220.43,0c.29,0,.44.06.44.18s-.09.24-.28.24a3.69,3.69,0,0,0-1,.16c-.93.33-1.41,1.61-2,3.3-1.35,3.87-4.45,13.57-5.65,17-.8,2.26-1,2.63-1.29,2.63s-.49-.4-.92-1.59l-6-17h-.06c-1.11,2.93-5.32,14.11-6.42,16.94-.49,1.28-.64,1.62-1,1.62s-.47-.34-1.08-2.41L189.65,3c-.49-1.62-.89-2.07-1.69-2.38a5.19,5.19,0,0,0-1.39-.19c-.16,0-.27,0-.27-.2s.18-.22.5-.22c1.59,0,3.27.09,3.62.09S192,0,193.57,0c.43,0,.56.09.56.22s-.16.2-.3.2a2.94,2.94,0,0,0-1.21.19.79.79,0,0,0-.39.73,23.92,23.92,0,0,0,.57,2.81c.46,1.95,3.66,13.15,4.12,14.77H197l6.5-17.4c.46-1.25.58-1.4.76-1.4s.4.39.77,1.44ZM230.48,4c.34-.85.47-1,.64-1s.37.37.65,1c.49,1.09,4.81,11.81,6.47,15.74,1,2.32,1.72,2.66,2.32,2.84a3.7,3.7,0,0,0,1.07.15c.15,0,.33.06.33.21s-.31.22-.62.22-2.39,0-4.27-.05c-.51,0-.95,0-.95-.19s.07-.13.2-.19a.49.49,0,0,0,.24-.7l-2.44-6c0-.12-.09-.15-.22-.15h-6.24a.26.26,0,0,0-.27.21l-1.55,4.15a5.43,5.43,0,0,0-.39,1.74c0,.52.46.7.91.7h.25c.22,0,.29.09.29.21s-.17.22-.41.22c-.65,0-2.12-.09-2.42-.09s-1.64.09-2.74.09c-.34,0-.51-.05-.51-.22a.23.23,0,0,1,.24-.21,7.75,7.75,0,0,0,.8-.06c1.22-.15,1.75-1.07,2.27-2.38L230.48,4Zm3,10.81c.12,0,.12-.07.08-.19l-2.67-7.11c-.16-.39-.3-.39-.46,0l-2.52,7.11c0,.12,0,.19.09.19Zm19,.77c0,2.49,0,4.54.14,5.61.08.76.21,1.25,1,1.38.36,0,1,.12,1.23.12s.22.11.22.21-.13.21-.44.21c-1.47,0-3.19-.08-3.35-.08s-2,.08-2.78.08c-.31,0-.43-.05-.43-.21a.18.18,0,0,1,.2-.19,3.76,3.76,0,0,0,.81-.11c.55-.13.7-.65.8-1.41.12-1.07.12-3.12.12-5.61V4.63l-3.9.07c-1.69,0-2.33.21-2.74.82a3.6,3.6,0,0,0-.42.83c-.07.21-.16.24-.28.24a.21.21,0,0,1-.18-.22c0-.26.54-2.58.58-2.8s.18-.49.28-.49a8.92,8.92,0,0,0,1.19.3c.77.09,1.82.13,2.12.13h10.19a13.1,13.1,0,0,0,1.93-.13l.77-.11c.12,0,.12.15.12.3,0,.79-.08,2.65-.08,3s-.13.33-.26.33-.17-.09-.21-.46l0-.27c-.1-.79-.68-1.36-3.26-1.43l-3.38-.07V15.54ZM268.43,11c0-4,0-4.75-.06-5.59s-.22-1.3-1.11-1.42a6.84,6.84,0,0,0-.91-.07.26.26,0,0,1-.23-.21c0-.15.13-.22.44-.22,1.21,0,3,.07,3.13.07s5.83,0,6.44,0,1-.13,1.22-.15a2,2,0,0,1,.37-.12c.1,0,.13.12.13.23s-.16.49-.22,1.22c0,.25-.09,1.42-.15,1.72,0,.12-.13.27-.24.27s-.23-.13-.23-.34a3.41,3.41,0,0,0-.13-.91c-.2-.43-.47-.62-1.95-.8-.47,0-3.59-.09-3.91-.09-.11,0-.15.09-.15.27v7.06c0,.17,0,.27.15.27.35,0,3.91,0,4.52-.07s1-.08,1.34-.36.29-.33.38-.33.15.06.15.21A14.19,14.19,0,0,0,277.2,13c-.06.51-.11,1.5-.11,1.67s-.08.49-.26.49-.18-.09-.18-.25a2.26,2.26,0,0,0-.12-.84c-.1-.38-.34-.68-1.38-.8-.73-.09-3.63-.12-4.08-.12-.16,0-.2.09-.2.19v2.16c0,.89,0,3.91,0,4.42.07,1.74.56,2.08,3.24,2.08a8.93,8.93,0,0,0,2.7-.28A2,2,0,0,0,278,20c.06-.31.13-.39.28-.39s.18.21.18.39a20.59,20.59,0,0,1-.37,2.51c-.17.67-.45.67-1.49.67-2,0-3.61-.06-4.71-.09s-1.83-.06-2.23-.06c-.08,0-.59,0-1.17,0s-1.14.06-1.57.06c-.27,0-.43-.06-.43-.22a.21.21,0,0,1,.22-.21,7.9,7.9,0,0,0,.83-.12c.52-.1.58-.62.7-1.38a50.36,50.36,0,0,0,.16-5.61V11Zm20,0c0-4,0-4.75-.07-5.59s-.21-1.31-1.11-1.43c-.21,0-.67-.06-.91-.06a.25.25,0,0,1-.22-.21c0-.15.13-.22.43-.22,1.23,0,3,.07,3.19.07s2.54-.07,3.37-.07a8.81,8.81,0,0,1,5,1.14A4.53,4.53,0,0,1,300,8.13c0,1.91-.79,3.77-3.31,5.91,2.21,2.75,4.08,5.09,5.66,6.72a4.92,4.92,0,0,0,3,1.8,5.83,5.83,0,0,0,.95.08.24.24,0,0,1,.25.21c0,.15-.15.22-.64.22h-1.69a5.68,5.68,0,0,1-2.89-.51c-1.16-.62-2.15-1.87-3.68-3.83-1.13-1.39-2.33-3.07-2.92-3.78a.4.4,0,0,0-.35-.16l-3.46,0c-.12,0-.17,0-.17.21v.61c0,2.51,0,4.52.12,5.59.09.76.24,1.25,1.07,1.38.37,0,1,.11,1.2.11s.21.12.21.21-.13.22-.42.22c-1.47,0-3.2-.08-3.32-.08s-1.84.08-2.66.08c-.29,0-.44-.06-.44-.22a.2.2,0,0,1,.21-.21,4.71,4.71,0,0,0,.84-.11c.52-.13.58-.62.7-1.38a50.55,50.55,0,0,0,.16-5.61V11Zm2.33,2.2a.4.4,0,0,0,.17.34,9.5,9.5,0,0,0,3,.39,3.47,3.47,0,0,0,2-.46,4.62,4.62,0,0,0,1.61-3.95c0-3.24-1.77-5.11-4.65-5.11a12.27,12.27,0,0,0-1.94.15.35.35,0,0,0-.21.31ZM0,41.49H314M0,41.21H314v.57H0ZM22.65,60.36c0,1,.07,1.07.84,1.08v.27H20.85v-.27c.77,0,.82-.09.82-1.08v-5c0-1-.05-1.06-.82-1.1V54h2.64v.26c-.78,0-.84.11-.84,1.09v2.12h4.07V55.32c0-1,0-1.06-.85-1.09V54h2.64v.26c-.77,0-.82.11-.82,1.09v5c0,1,.06,1.07.82,1.08v.27H25.87v-.27c.78,0,.85-.11.85-1.08V57.79H22.65ZM33.22,56.2c0,.62-.06,1.55-.06,2v2.18c0,1,0,1.07.77,1.09v.24H31.48v-.24c.73,0,.8-.1.8-1.09V57.52c0-.53-.05-.77-.17-.86s-.25-.1-.63-.1v-.23Zm-.54-2.26a.6.6,0,1,1,0,1.2.6.6,0,1,1,0-1.2m8.09,2.75a1.94,1.94,0,0,1,.61,1.42A1.88,1.88,0,0,1,39.25,60a3.47,3.47,0,0,1-1-.13c-.4.22-.55.4-.55.65S38,61,38.93,61h.74a5.34,5.34,0,0,1,1.38.11,1.11,1.11,0,0,1,.89,1.15,1.62,1.62,0,0,1-.8,1.33,3.75,3.75,0,0,1-1.9.4,3.39,3.39,0,0,1-1.67-.33,1.06,1.06,0,0,1-.57-1c0-.44.09-.55.75-1a1,1,0,0,1-.68-.94c0-.3.1-.44.52-.72l.41-.29a2.07,2.07,0,0,1-.54-.45,1.8,1.8,0,0,1-.34-1.1A1.9,1.9,0,0,1,38,56.49a2.62,2.62,0,0,1,1.33-.31,3.4,3.4,0,0,1,.72.07,3.45,3.45,0,0,0,.67.06l1.16,0v.41ZM37.7,62.55c0,.78.57,1.2,1.65,1.2s1.87-.47,1.87-1.21c0-.45-.25-.69-.82-.79-.22,0-.54,0-1.23,0l-1,0c-.29.1-.44.36-.44.82m.57-3.33a1.11,1.11,0,0,0,1,.52c.78,0,1.2-.57,1.2-1.63s-.42-1.7-1.2-1.7S38,57,38,58a2.53,2.53,0,0,0,.25,1.19m7.94-1.91a2,2,0,0,1,1.92-1.14,1.59,1.59,0,0,1,1.56.77,3.06,3.06,0,0,1,.2,1.3v2.14c0,1,0,1.07.78,1.09v.24H48.23v-.24c.74,0,.79-.09.79-1.09V58.23a2.43,2.43,0,0,0-.18-1.15,1,1,0,0,0-.94-.52,1.42,1.42,0,0,0-1.07.43,2.52,2.52,0,0,0-.51.86,2.64,2.64,0,0,0-.11.81v1.72c0,1,.06,1.07.78,1.09v.24H44.56v-.24c.73,0,.78-.09.78-1.09v-5.2c0-.91,0-1-.78-1V54l1.71-.09c0,.81-.06,1.2-.06,2.14v1.29Zm15.17,4.78a2.54,2.54,0,0,1-1.36.44,1.31,1.31,0,0,1-1-.44,3.21,3.21,0,0,1-.38-.43,3.9,3.9,0,0,1-1.24.19c-2.21,0-3.67-1.58-3.67-4s1.43-4.08,3.64-4.08S61,55.37,61,57.73a5,5,0,0,1-.65,2.6,3,3,0,0,1-.91,1c.44.53.78.75,1.16.75a2,2,0,0,0,.73-.17ZM57,59.46a2,2,0,0,1,1.45.64,4.72,4.72,0,0,1,.66.77,2.27,2.27,0,0,0,.48-.85A6.48,6.48,0,0,0,59.91,58c0-2.4-1-3.86-2.58-3.86a2.16,2.16,0,0,0-1.91,1.12,5.31,5.31,0,0,0-.62,2.66,4.74,4.74,0,0,0,.74,2.74A1.45,1.45,0,0,1,57,59.46m-.26.49a.89.89,0,0,0-.79.44,2,2,0,0,0-.17.48,1.51,1.51,0,0,0,.68.51,2.58,2.58,0,0,0,.94.17,2.73,2.73,0,0,0,1-.22c-.59-.95-1.1-1.38-1.69-1.38m11.55,1.83a8.45,8.45,0,0,1-.06-1.09,2.16,2.16,0,0,1-1.9,1.15A1.42,1.42,0,0,1,64.9,61a4.76,4.76,0,0,1-.16-1.66V57.52c0-.55,0-.77-.16-.86s-.16-.1-.36-.1H64v-.24l1.66-.11c0,1-.07,1.26-.07,2v.93a4.92,4.92,0,0,0,.16,1.75.83.83,0,0,0,.86.59,1.59,1.59,0,0,0,1.41-1,2.7,2.7,0,0,0,.18-1.27V57.52c0-.56,0-.76-.16-.86a.53.53,0,0,0-.37-.1h-.19v-.24l1.68-.11c0,.81-.06,1.51-.06,2v2c0,1.05.09,1.25.65,1.25h.08v.23Zm9.52-.09a10.18,10.18,0,0,1-1.11.11c-.32,0-.4-.18-.45-.9a2.12,2.12,0,0,1-.53.46,2.08,2.08,0,0,1-1.39.47,1.64,1.64,0,0,1-1.1-.33,1.53,1.53,0,0,1-.46-1.14c0-.84.53-1.39,1.58-1.62a11.79,11.79,0,0,1,1.9-.26v-.67a2,2,0,0,0-.14-1,.91.91,0,0,0-.89-.43,1,1,0,0,0-1.11,1c0,.24,0,.31-.11.37a.71.71,0,0,1-.39.08c-.37,0-.52-.08-.52-.31a1.24,1.24,0,0,1,.72-1,3.36,3.36,0,0,1,1.58-.33,1.77,1.77,0,0,1,1.43.47,1.75,1.75,0,0,1,.31,1.2l0,1.07v1.52a3,3,0,0,0,.1.91c.07.09.2.12.61.12v.22Zm-1.56-3a4.31,4.31,0,0,0-1.79.39,1.24,1.24,0,0,0-.73,1.21c0,.66.37,1.14.91,1.14A1.63,1.63,0,0,0,76,60.69a2.93,2.93,0,0,0,.25-1.47v-.49Zm4.45,2.74c.71,0,.75-.11.75-1.09v-5.2c0-.53,0-.78-.15-.87s-.24-.09-.6-.1V54l1.7-.09c0,.71-.05,1.57-.05,2.14v4.36c0,1,.05,1.07.77,1.09v.24H80.7Zm7-5.27c0,.62,0,1.55,0,2v2.17c0,1,0,1.08.76,1.1v.24H86v-.24c.75,0,.8-.1.8-1.1V57.52c0-.54,0-.77-.16-.86s-.26-.1-.64-.1v-.23Zm-.54-2.26a.6.6,0,1,1-.6.59.6.6,0,0,1,.6-.59m5.75,6.25c0,.64,0,.91.14,1.06a.62.62,0,0,0,.53.22,1.17,1.17,0,0,0,.67-.19l.09.28a2.27,2.27,0,0,1-1.07.27,1.17,1.17,0,0,1-1.11-.53c-.13-.21-.15-.44-.15-1.23V56.61h-.68v-.25c.63,0,1-.46,1.12-1.47l.49-.14c0,.46,0,.87,0,1.58h1.3v.28h-1.3v3.58ZM101,57.63a1.36,1.36,0,0,0,.13-.58c0-.33-.19-.47-.76-.49v-.25h2.07v.25c-.52,0-.77.3-1.11,1.18l-2.06,5.13a2.6,2.6,0,0,1-.43.77,1.06,1.06,0,0,1-.81.36c-.39,0-.57-.16-.57-.54s.1-.37.3-.37h.16l.39,0c.39,0,.56-.18.8-.75l.24-.61-1.63-4.2c-.34-.85-.44-1-.95-1v-.25h2.37v.25c-.48,0-.66.1-.66.38a1.84,1.84,0,0,0,.16.61l1.15,3.18Zm20,4.12h-.68l-1.58-6.39a2,2,0,0,0-.42-.94c-.12-.11-.27-.15-.63-.19V54h2.76v.26a1.23,1.23,0,0,0-.6.11.44.44,0,0,0-.25.41,2.9,2.9,0,0,0,.17.79l1.19,5,1.91-6.51h.67l1.76,6.44,1.24-4.67a3.75,3.75,0,0,0,.18-1,.55.55,0,0,0-.4-.56,1.45,1.45,0,0,0-.52-.08V54h2.45v.26c-.68.08-.91.35-1.25,1.54l-1.66,6h-.62l-1.78-6.54Zm15-.06a10.18,10.18,0,0,1-1.11.11c-.32,0-.4-.18-.45-.9a2,2,0,0,1-.53.46,2.1,2.1,0,0,1-1.4.47,1.54,1.54,0,0,1-1.08-.33,1.47,1.47,0,0,1-.48-1.14c0-.84.55-1.39,1.58-1.62a12.1,12.1,0,0,1,1.91-.26v-.67a2.15,2.15,0,0,0-.15-1,.9.9,0,0,0-.89-.43c-.7,0-1.08.33-1.11,1,0,.24,0,.31-.11.37a.67.67,0,0,1-.38.08c-.37,0-.54-.08-.54-.31a1.3,1.3,0,0,1,.73-1,3.35,3.35,0,0,1,1.57-.33,1.78,1.78,0,0,1,1.44.47,1.75,1.75,0,0,1,.31,1.2l0,1.07v1l0,.5a2.28,2.28,0,0,0,.12.91c.07.09.2.12.6.12v.22Zm-1.56-3a4.47,4.47,0,0,0-1.81.39,1.24,1.24,0,0,0-.71,1.21c0,.66.35,1.14.9,1.14a1.66,1.66,0,0,0,1.37-.78,3,3,0,0,0,.25-1.47Zm6,1.46a2.16,2.16,0,0,0,.13,1.06.66.66,0,0,0,.54.22,1.22,1.22,0,0,0,.68-.19l.09.28a2.34,2.34,0,0,1-1.09.27,1.16,1.16,0,0,1-1.1-.53,2.39,2.39,0,0,1-.16-1.23V56.61h-.67v-.25c.64,0,1-.46,1.11-1.47l.5-.14c0,.46,0,.87,0,1.58h1.29v.28h-1.29Zm5.26-1.49a4.27,4.27,0,0,0,.24,1.6,1.63,1.63,0,0,0,1.62,1.17,2,2,0,0,0,1.77-1.2l.25.13a2.33,2.33,0,0,1-2.27,1.45,2.55,2.55,0,0,1-2.59-2.76c0-1.74,1-2.92,2.54-2.92a2.06,2.06,0,0,1,2.05,1.35,3.57,3.57,0,0,1,.18,1.18Zm2.86-.29a3.24,3.24,0,0,0-.2-1.19,1.19,1.19,0,0,0-1.11-.78,1.37,1.37,0,0,0-1.24.83,2.88,2.88,0,0,0-.29,1.14Zm5.52-2.21,0,.9v.34a1.82,1.82,0,0,1,1.56-1.27.74.74,0,0,1,.82.66c0,.27-.22.45-.55.45s-.35-.07-.41-.27-.13-.3-.3-.3a1,1,0,0,0-.81.64,2.74,2.74,0,0,0-.29,1.34v1.69c0,1,0,1.07.78,1.09v.24h-2.46v-.24c.72,0,.78-.1.78-1.09V57.51c0-.8-.14-.95-.73-.95v-.24ZM172,61.45c.36,0,.58-.05.68-.16s.11-.14.13-.94v-5c0-.68,0-.69-.06-.79s-.26-.3-.75-.3V54h3a4.85,4.85,0,0,1,2.41.44,3.6,3.6,0,0,1,1.67,3.38,3.77,3.77,0,0,1-1.5,3.32,5.18,5.18,0,0,1-2.84.6H172v-.26Zm2.89-.06a3,3,0,0,0,2.35-.86A3.82,3.82,0,0,0,178,58a5.06,5.06,0,0,0-.58-2.55,2.82,2.82,0,0,0-2.62-1.13h-1v7.1Zm8.52-2.69a4.3,4.3,0,0,0,.23,1.6,1.62,1.62,0,0,0,1.62,1.17,1.94,1.94,0,0,0,1.77-1.2l.25.13A2.36,2.36,0,0,1,185,61.85a2.56,2.56,0,0,1-2.59-2.76c0-1.74,1-2.92,2.54-2.92A2.06,2.06,0,0,1,187,57.52a3.57,3.57,0,0,1,.18,1.18Zm2.84-.29a3.24,3.24,0,0,0-.2-1.19,1.21,1.21,0,0,0-1.11-.78,1.36,1.36,0,0,0-1.23.83,2.88,2.88,0,0,0-.29,1.14Zm3.93,3.06c.7,0,.76-.11.76-1.09v-5.2c0-.53,0-.78-.15-.87s-.24-.09-.61-.1V54l1.71-.09c0,.71-.06,1.57-.06,2.14v4.36c0,1,.05,1.07.77,1.09v.24h-2.42Zm7-5.27c0,.62-.08,1.55-.08,2v2.17c0,1,.07,1.08.78,1.1v.24h-2.45v-.24c.75,0,.81-.1.81-1.1V57.52c0-.54,0-.77-.17-.86s-.26-.1-.64-.1v-.23l1.75-.13Zm-.53-2.26a.6.6,0,0,1,0,1.2.6.6,0,1,1,0-1.2m8.15,3.61a1.67,1.67,0,0,0,.14-.56c0-.28-.26-.41-.84-.43v-.24h2.21v.24c-.56,0-.83.26-1.12,1.07l-1.56,4.12H203l-1.7-4.43c-.22-.61-.39-.76-.84-.76v-.24h2.41v.24c-.49,0-.71.12-.71.36a2.23,2.23,0,0,0,.14.56l1.27,3.43,1.2-3.36ZM210,58.7a4.27,4.27,0,0,0,.24,1.6,1.63,1.63,0,0,0,1.61,1.17,2,2,0,0,0,1.79-1.2l.24.13a2.33,2.33,0,0,1-2.27,1.45,2.54,2.54,0,0,1-2.58-2.76c0-1.74,1-2.92,2.54-2.92a2.08,2.08,0,0,1,2.05,1.35,3.15,3.15,0,0,1,.17,1.18Zm2.86-.29a2.7,2.7,0,0,0-.21-1.19,1.17,1.17,0,0,0-1.1-.78,1.4,1.4,0,0,0-1.24.83,3.09,3.09,0,0,0-.28,1.14Zm5.51-2.21,0,.9v.34A1.79,1.79,0,0,1,220,56.17a.74.74,0,0,1,.82.66c0,.27-.23.45-.57.45s-.34-.07-.4-.27-.13-.3-.3-.3a1,1,0,0,0-.81.64,2.74,2.74,0,0,0-.29,1.34v1.69c0,1,.06,1.07.78,1.09v.24h-2.47v-.24c.72,0,.79-.1.79-1.09V57.51c0-.8-.13-.95-.74-.95v-.24Zm8.91,1.43a1.4,1.4,0,0,0,.14-.58c0-.33-.22-.47-.77-.49v-.25h2.07v.25c-.5,0-.77.3-1.12,1.18l-2,5.13a4,4,0,0,1-.43.77,1.07,1.07,0,0,1-.83.36c-.37,0-.56-.16-.56-.54s.1-.37.31-.37h.15l.38,0c.39,0,.57-.18.81-.75l.23-.61L224,57.57c-.33-.85-.45-1-.95-1v-.24h2.37v.24c-.47,0-.65.1-.65.38a1.9,1.9,0,0,0,.14.61l1.16,3.18,1.21-3.1Zm17.25,1.94h.36a2.07,2.07,0,0,0,.45,1.35,2,2,0,0,0,1.6.62,1.37,1.37,0,0,0,1.56-1.4c0-.84-.39-1.24-2-2a5.11,5.11,0,0,1-1.54-1,1.8,1.8,0,0,1-.46-1.27,2,2,0,0,1,.66-1.55,2.22,2.22,0,0,1,1.54-.51A4.57,4.57,0,0,1,248,54a1.55,1.55,0,0,0,.39.06,2.06,2.06,0,0,0,.65-.17L249,56h-.35a2.34,2.34,0,0,0-.31-1.13,1.71,1.71,0,0,0-1.54-.75,1.41,1.41,0,0,0-1.14.45,1.57,1.57,0,0,0-.31.93c0,.7.36,1.06,1.63,1.65s1.84,1,2.14,1.46a2,2,0,0,1,.3,1.17,1.81,1.81,0,0,1-.6,1.45,2.61,2.61,0,0,1-1.77.58,6.16,6.16,0,0,1-1.43-.17,1.11,1.11,0,0,0-.35,0,4.49,4.49,0,0,0-.74.11l.06-2.16Zm9-.87a4.25,4.25,0,0,0,.25,1.6,1.61,1.61,0,0,0,1.61,1.17,1.89,1.89,0,0,0,1.76-1.2l.26.13a2.32,2.32,0,0,1-2.27,1.45,2.56,2.56,0,0,1-2.58-2.76c0-1.74,1-2.92,2.55-2.92a2.07,2.07,0,0,1,2,1.35,3.63,3.63,0,0,1,.17,1.18Zm2.86-.29a2.7,2.7,0,0,0-.21-1.19,1.17,1.17,0,0,0-1.1-.78,1.4,1.4,0,0,0-1.24.83,3.3,3.3,0,0,0-.28,1.14Zm5.52-2.21,0,.9v.34a1.83,1.83,0,0,1,1.57-1.27.74.74,0,0,1,.81.66c0,.27-.23.45-.57.45a.36.36,0,0,1-.41-.27c-.06-.25-.12-.3-.28-.3s-.58.23-.8.64a2.53,2.53,0,0,0-.31,1.34v1.69c0,1,.07,1.07.78,1.09v.24H260.3v-.24c.73,0,.79-.1.79-1.09V57.51c0-.8-.13-.95-.75-.95v-.24l1.6-.12Zm9,1.35a2,2,0,0,0,.14-.56c0-.28-.25-.41-.83-.43v-.24h2.2v.24c-.56,0-.82.26-1.12,1.07l-1.55,4.12h-.61l-1.7-4.43c-.22-.61-.39-.76-.86-.76v-.24H269v.24c-.5,0-.72.12-.72.36a2,2,0,0,0,.15.56l1.25,3.43Zm5.84-1.35c0,.62-.06,1.55-.06,2v2.17c0,1,.06,1.08.77,1.1v.24H275v-.24c.74,0,.79-.1.79-1.1V57.52c0-.54,0-.77-.15-.86s-.26-.1-.64-.1v-.23l1.73-.13Zm-.53-2.26a.6.6,0,1,1-.62.59.6.6,0,0,1,.62-.59" transform="translate(0 0)"/><path class="cls-1" d="M285.29,60.34a2.27,2.27,0,0,1-2.2,1.51,2.54,2.54,0,0,1-2.57-2.76,2.64,2.64,0,0,1,2.62-2.92,2.49,2.49,0,0,1,1.6.54,1.28,1.28,0,0,1,.46.85c0,.2-.2.32-.54.32a.55.55,0,0,1-.36-.1c-.06-.07-.06-.08-.09-.36a1.07,1.07,0,0,0-1.12-1c-1,0-1.55.9-1.55,2.44s.66,2.62,1.79,2.62a1.87,1.87,0,0,0,1.73-1.3l.23.15Zm4-1.64a4.25,4.25,0,0,0,.25,1.6,1.62,1.62,0,0,0,1.61,1.17,2,2,0,0,0,1.78-1.2l.24.13a2.3,2.3,0,0,1-2.26,1.45,2.55,2.55,0,0,1-2.59-2.76c0-1.74,1-2.92,2.55-2.92a2.08,2.08,0,0,1,2.05,1.35,3.2,3.2,0,0,1,.16,1.18Zm2.87-.28a3,3,0,0,0-.21-1.19,1.18,1.18,0,0,0-1.11-.79,1.38,1.38,0,0,0-1.23.83,3.28,3.28,0,0,0-.29,1.15Z" transform="translate(0 0)"/></svg>